# Blender v2.93.3 OBJ File: ''
# www.blender.org
mtllib amongus2.mtl
o Plane
v -0.659878 1.781511 0.000000
v -0.661776 2.000000 0.000000
v -0.220592 2.000000 0.000000
v -0.218694 1.781511 0.000000
v -0.659878 0.826981 0.000000
v -0.986302 0.826981 0.000000
v -0.984404 1.262327 0.000000
v -0.657980 1.262327 0.000000
v -0.661776 0.000000 0.000000
v -0.661776 0.391635 0.000000
v -0.220592 0.391635 0.000000
v -0.220592 0.000000 0.000000
v 0.220592 0.000000 0.000000
v 0.220592 0.391635 0.000000
v 0.661776 0.391635 0.000000
v 0.661776 0.000000 0.000000
v -0.218694 0.826981 0.000000
v -0.216796 1.262327 0.000000
v 0.224388 1.262327 0.000000
v 0.222490 0.826981 0.000000
v -0.657980 1.563021 0.000000
v -0.984404 1.563021 0.000000
v -0.986302 1.781511 0.000000
v -0.216796 1.563021 0.000000
v 0.665571 1.262327 0.000000
v 0.663674 0.826981 0.000000
v 0.661776 2.000000 0.000000
v 0.663674 1.781511 0.000000
v 0.665571 1.563021 0.000000
v -0.659878 1.781511 -0.772251
v -0.218694 1.781511 -0.772251
v -0.220592 2.000000 -0.772251
v -0.661776 2.000000 -0.772251
v -0.659878 0.826981 -0.772251
v -0.657980 1.262327 -0.772251
v -0.984404 1.262327 -0.772251
v -0.986302 0.826981 -0.772251
v -0.661776 0.000000 -0.772252
v -0.220592 0.000000 -0.772252
v -0.220592 0.391635 -0.772252
v -0.661776 0.391635 -0.772252
v 0.220592 0.000000 -0.772252
v 0.661776 0.000000 -0.772252
v 0.661776 0.391635 -0.772252
v 0.220592 0.391635 -0.772252
v -0.218694 0.826981 -0.772251
v 0.222490 0.826981 -0.772251
v 0.224388 1.262327 -0.772251
v -0.216796 1.262327 -0.772251
v -0.657980 1.563021 -0.772251
v -0.986302 1.781511 -0.772251
v -0.984404 1.563021 -0.772251
v -0.216796 1.563021 -0.772251
v 0.663674 0.826981 -0.772251
v 0.665571 1.262327 -0.772251
v 0.665571 1.563021 -0.772251
v 0.663674 1.781511 -0.772251
v 0.661776 2.000000 -0.772251
vt 0.000000 0.938213
vt 0.333333 1.000000
vt 0.333333 0.938213
vt 0.000000 0.402091
vt 0.000000 0.608365
vt 0.000000 0.608365
vt 0.000000 0.195818
vt 0.333333 0.000000
vt 0.000000 0.000000
vt 0.666667 0.195818
vt 1.000000 0.000000
vt 0.666667 0.000000
vt 0.333333 0.608365
vt 0.666667 0.402091
vt 0.333333 0.402091
vt 0.000000 0.876426
vt 0.000000 0.876426
vt 0.666667 0.608365
vt 1.000000 0.402091
vt 1.000000 1.000000
vt 1.000000 0.938213
vt 0.333333 0.876426
vt 1.000000 0.195818
vt 0.333333 0.195818
vt 0.000000 0.938213
vt 0.333333 1.000000
vt 0.000000 1.000000
vt 0.000000 0.402091
vt 0.000000 0.608365
vt 0.000000 0.402091
vt 0.333333 0.000000
vt 0.000000 0.195818
vt 0.000000 0.000000
vt 1.000000 0.000000
vt 0.666667 0.195818
vt 0.666667 0.000000
vt 0.666667 0.402091
vt 0.333333 0.608365
vt 0.333333 0.402091
vt 0.000000 0.876426
vt 0.000000 0.876426
vt 0.000000 0.608365
vt 1.000000 0.402091
vt 0.666667 0.608365
vt 1.000000 1.000000
vt 0.333333 0.938213
vt 1.000000 0.195818
vt 0.333333 0.195818
vt 0.000000 0.402091
vt 1.000000 0.938213
vt 0.000000 1.000000
vt 1.000000 0.608365
vt 1.000000 0.608365
vt 1.000000 0.876426
vt 0.333333 0.876426
vt 0.000000 0.938213
vt 0.000000 0.938213
vt 1.000000 0.876426
vn 0.0000 0.0000 -1.0000
vn 0.0000 -0.0000 1.0000
vn -1.0000 0.0022 0.0000
vn -1.0000 -0.0000 0.0000
vn 0.0000 1.0000 0.0000
vn -1.0000 -0.0087 -0.0000
vn 0.0000 -1.0000 -0.0000
vn -1.0000 0.0044 0.0000
vn 1.0000 0.0000 0.0000
vn 1.0000 0.0043 0.0000
vn 1.0000 0.0087 0.0000
vn 1.0000 -0.0022 0.0000
vn 1.0000 -0.0044 -0.0000
usemtl None
s 1
f 1/1/1 3/2/1 4/3/1
f 5/4/1 7/5/1 8/6/1
f 10/7/1 12/8/1 9/9/1
f 14/10/1 16/11/1 13/12/1
f 18/13/1 20/14/1 17/15/1
f 22/16/1 1/1/1 21/17/1
f 8/6/1 17/15/1 5/4/1
f 21/17/1 18/13/1 8/6/1
f 19/18/1 26/19/1 20/14/1
f 7/5/1 21/17/1 8/6/1
f 27/20/1 28/21/1 4/3/1
f 21/17/1 4/3/1 24/22/1
f 20/14/1 15/23/1 14/10/1
f 5/4/1 11/24/1 10/7/1
f 17/15/1 14/10/1 11/24/1
f 30/25/2 32/26/2 33/27/2
f 34/28/2 36/29/2 37/30/2
f 39/31/2 41/32/2 38/33/2
f 43/34/2 45/35/2 42/36/2
f 47/37/2 49/38/2 46/39/2
f 30/25/2 52/40/2 50/41/2
f 46/39/2 35/42/2 34/28/2
f 49/38/2 50/41/2 35/42/2
f 54/43/2 48/44/2 47/37/2
f 50/41/2 36/29/2 35/42/2
f 58/45/2 32/26/2 31/46/2
f 50/41/2 31/46/2 30/25/2
f 44/47/2 47/37/2 45/35/2
f 40/48/2 34/28/2 41/32/2
f 45/35/2 46/39/2 40/48/2
f 15/23/3 43/34/4 16/11/4
f 5/4/5 37/30/5 6/49/5
f 27/20/6 57/50/6 28/21/6
f 11/24/4 39/31/4 12/8/4
f 2/51/7 32/26/7 3/2/7
f 24/22/4 49/38/4 18/13/4
f 15/23/3 54/43/8 44/47/3
f 13/12/9 45/35/9 14/10/9
f 19/18/7 55/52/7 25/53/7
f 12/8/5 38/33/5 9/9/5
f 14/10/5 40/48/5 11/24/5
f 29/54/5 53/55/5 24/22/5
f 23/56/7 30/25/7 1/1/7
f 22/16/10 51/57/11 23/56/11
f 7/5/12 52/40/10 22/16/10
f 28/21/6 56/58/6 29/54/6
f 3/2/7 58/45/7 27/20/7
f 9/9/9 41/32/12 10/7/12
f 25/53/8 54/43/8 26/19/8
f 1/1/11 33/27/11 2/51/11
f 10/7/12 34/28/13 5/4/13
f 18/13/7 48/44/7 19/18/7
f 16/11/5 42/36/5 13/12/5
f 6/49/13 36/29/12 7/5/12
f 1/1/1 2/51/1 3/2/1
f 5/4/1 6/49/1 7/5/1
f 10/7/1 11/24/1 12/8/1
f 14/10/1 15/23/1 16/11/1
f 18/13/1 19/18/1 20/14/1
f 22/16/1 23/56/1 1/1/1
f 8/6/1 18/13/1 17/15/1
f 21/17/1 24/22/1 18/13/1
f 19/18/1 25/53/1 26/19/1
f 7/5/1 22/16/1 21/17/1
f 29/54/1 24/22/1 28/21/1
f 24/22/1 4/3/1 28/21/1
f 4/3/1 3/2/1 27/20/1
f 21/17/1 1/1/1 4/3/1
f 20/14/1 26/19/1 15/23/1
f 5/4/1 17/15/1 11/24/1
f 17/15/1 20/14/1 14/10/1
f 30/25/2 31/46/2 32/26/2
f 34/28/2 35/42/2 36/29/2
f 39/31/2 40/48/2 41/32/2
f 43/34/2 44/47/2 45/35/2
f 47/37/2 48/44/2 49/38/2
f 30/25/2 51/57/2 52/40/2
f 46/39/2 49/38/2 35/42/2
f 49/38/2 53/55/2 50/41/2
f 54/43/2 55/52/2 48/44/2
f 50/41/2 52/40/2 36/29/2
f 31/46/2 53/55/2 57/50/2
f 53/55/2 56/58/2 57/50/2
f 57/50/2 58/45/2 31/46/2
f 50/41/2 53/55/2 31/46/2
f 44/47/2 54/43/2 47/37/2
f 40/48/2 46/39/2 34/28/2
f 45/35/2 47/37/2 46/39/2
f 15/23/3 44/47/3 43/34/4
f 5/4/5 34/28/5 37/30/5
f 27/20/6 58/45/6 57/50/6
f 11/24/4 40/48/4 39/31/4
f 2/51/7 33/27/7 32/26/7
f 24/22/4 53/55/4 49/38/4
f 15/23/3 26/19/8 54/43/8
f 13/12/9 42/36/9 45/35/9
f 19/18/7 48/44/7 55/52/7
f 12/8/5 39/31/5 38/33/5
f 14/10/5 45/35/5 40/48/5
f 29/54/5 56/58/5 53/55/5
f 23/56/7 51/57/7 30/25/7
f 22/16/10 52/40/10 51/57/11
f 7/5/12 36/29/12 52/40/10
f 28/21/6 57/50/6 56/58/6
f 3/2/7 32/26/7 58/45/7
f 9/9/9 38/33/9 41/32/12
f 25/53/8 55/52/8 54/43/8
f 1/1/11 30/25/11 33/27/11
f 10/7/12 41/32/12 34/28/13
f 18/13/7 49/38/7 48/44/7
f 16/11/5 43/34/5 42/36/5
f 6/49/13 37/30/13 36/29/12
